<?xml version="1.0" encoding="utf-8"?>
<!-- Generator: Adobe Illustrator 13.0.0, SVG Export Plug-In . SVG Version: 6.00 Build 14948)  -->
<!DOCTYPE svg PUBLIC "-//W3C//DTD SVG 1.1//EN" "http://www.w3.org/Graphics/SVG/1.1/DTD/svg11.dtd">
<svg version="1.1" id="Layer_1" xmlns="http://www.w3.org/2000/svg" xmlns:xlink="http://www.w3.org/1999/xlink" x="0px" y="0px"
	 width="211.259px" height="35.169px" viewBox="0 0 211.259 35.169" enable-background="new 0 0 211.259 35.169"
	 xml:space="preserve">
<path fill="#FFFFFF" d="M25.76,10.899c0.033,0.426,0.033,0.786,0.033,1.277c0,8.117-6.219,12.994-12.929,12.994
	C5.532,25.17,0,19.442,0,12.471C0,5.237,5.827,0,12.961,0c5.794,0,10.769,3.895,12.111,8.576h-6.939
	c-0.949-1.702-2.717-3.142-5.335-3.142c-3.044,0-6.612,2.258-6.612,7.037c0,5.073,3.601,7.266,6.645,7.266
	c3.077,0,5.139-1.538,5.794-3.895h-7.234v-4.942H25.76z"/>
<path fill="#FFFFFF" d="M33.31,0.458v14.631c0,1.637,0.098,4.616,3.143,4.616c3.076,0,3.076-2.684,3.076-4.616V0.458h6.187v14.631
	c0,4.059-0.883,5.859-2.422,7.43c-1.571,1.604-3.765,2.619-6.775,2.619c-1.768,0-4.976-0.425-6.972-2.586
	c-1.997-2.193-2.422-3.895-2.422-7.463V0.458H33.31z"/>
<polygon fill="#FFFFFF" points="47.896,0.458 54.082,0.458 54.082,19.246 61.25,19.246 61.25,24.68 47.896,24.68 "/>
<polygon fill="#FFFFFF" points="63.179,0.458 76.402,0.458 76.402,5.892 69.103,5.892 69.103,10.016 76.141,10.016 76.141,15.45 
	69.103,15.45 69.103,24.68 63.179,24.68 "/>
<rect x="88.127" y="0.496" fill="#7A7477" width="6.187" height="24.221"/>
<path fill="#7A7477" d="M96.332,6.551h5.073v1.931h0.065c0.557-0.884,1.702-2.553,4.943-2.553c1.735,0,3.666,0.72,4.647,1.571
	c0.982,0.851,2.095,2.291,2.095,5.859v11.357h-5.433v-9.917c0-1.276,0-3.764-2.848-3.764c-3.109,0-3.109,2.684-3.109,3.797v9.885
	h-5.433V6.551z"/>
<path fill="#7A7477" d="M134.456,24.716h-5.171v-1.964h-0.066c-0.458,0.753-1.768,2.554-5.433,2.554c-5.499,0-9.1-4.255-9.1-9.722
	c0-6.153,4.386-9.655,9.001-9.655c3.207,0,4.746,1.571,5.335,2.161V0.495h5.434V24.716z M124.668,20.232
	c3.404,0,4.648-2.782,4.648-4.681c0-2.193-1.571-4.55-4.583-4.55c-3.142,0-4.614,2.455-4.614,4.55
	C120.12,18.367,122.116,20.232,124.668,20.232"/>
<path fill="#7A7477" d="M153.396,24.716h-5.138v-1.931h-0.065c-1.113,2.324-3.339,2.52-4.713,2.52c-1.113,0-3.731-0.262-5.335-2.291
	c-1.441-1.8-1.637-3.109-1.637-5.597V6.551h5.434v10.048c0,1.244,0,3.633,2.913,3.633c1.571,0,3.109-0.818,3.109-3.699V6.551h5.433
	V24.716z"/>
<path fill="#7A7477" d="M163.896,11.657c-0.033-0.393-0.098-1.375-1.702-1.375c-1.146,0-1.539,0.72-1.539,1.211
	c0,0.982,1.342,1.538,2.782,1.964c3.077,0.851,6.35,1.768,6.35,5.695c0,3.83-3.371,6.187-7.396,6.187
	c-2.75,0-6.907-1.244-7.398-6.022h5.401c0.229,1.669,1.833,1.669,2.062,1.669c0.917,0,1.898-0.523,1.898-1.407
	c0-1.408-1.342-1.571-4.812-2.913c-2.356-0.753-4.32-2.291-4.32-4.746c0-3.601,3.273-5.99,7.038-5.99
	c2.389,0,6.514,0.949,6.972,5.728H163.896z"/>
<polygon fill="#7A7477" points="178.03,6.551 180.649,6.551 180.649,10.675 178.03,10.675 178.03,24.716 172.597,24.716 
	172.597,10.675 169.913,10.675 168.557,6.551 172.597,6.551 172.597,0.496 178.03,0.496 "/>
<path fill="#7A7477" d="M182.315,6.551h5.106v1.931h0.065c0.458-0.884,1.931-2.553,4.405-2.553l2.122,5.466
	c-2.787,0-6.265,0.589-6.265,3.339v9.983h-5.433V6.551z"/>
<polygon fill="#7A7477" points="211.259,5.893 200.631,35.169 194.87,35.169 199.52,23.8 192.537,5.893 198.33,5.893 202.204,17.09 
	202.269,17.09 205.498,5.893 "/>
</svg>
